<svg xmlns="http://www.w3.org/2000/svg" xmlns:xlink="http://www.w3.org/1999/xlink" width="500" zoomAndPan="magnify" viewBox="0 0 375 374.999991" height="500" preserveAspectRatio="xMidYMid meet" version="1.2"><defs><clipPath id="e5ea0f5cd9"><path d="M 167 124 L 207 124 L 207 178 L 167 178 Z M 167 124 "/></clipPath><clipPath id="4e763cb4bc"><path d="M 194.753906 124.605469 L 206.828125 131.890625 L 179.539062 177.109375 L 167.464844 169.820312 Z M 194.753906 124.605469 "/></clipPath><clipPath id="43e284b212"><path d="M 168 131 L 196 131 L 196 159 L 168 159 Z M 168 131 "/></clipPath><clipPath id="45a8c9f61e"><path d="M 178.839844 131.804688 L 195.296875 141.738281 L 185.175781 158.5 L 168.722656 148.570312 Z M 178.839844 131.804688 "/></clipPath><clipPath id="92cd9228ae"><path d="M 187 133 L 214 133 L 214 159 L 187 159 Z M 187 133 "/></clipPath><clipPath id="2d530bcefe"><path d="M 197.007812 133.59375 L 213.460938 143.527344 L 204.421875 158.5 L 187.96875 148.570312 Z M 197.007812 133.59375 "/></clipPath></defs><g id="4dd49003ba"><rect x="0" width="375" y="0" height="374.999991" style="fill:#ffffff;fill-opacity:1;stroke:none;"/><rect x="0" width="375" y="0" height="374.999991" style="fill:#ffffff;fill-opacity:1;stroke:none;"/><g style="fill:#3d3b3a;fill-opacity:1;"><g transform="translate(117.758045, 217.83331)"><path style="stroke:none" d="M 9.953125 -3.359375 L 2.9375 -3.359375 L 1.421875 0 L 0.03125 0 L 5.796875 -12.59375 L 7.109375 -12.59375 L 12.875 0 L 11.46875 0 Z M 9.46875 -4.453125 L 6.4375 -11.21875 L 3.421875 -4.453125 Z M 9.46875 -4.453125 "/></g></g><g style="fill:#3d3b3a;fill-opacity:1;"><g transform="translate(136.055648, 217.83331)"><path style="stroke:none" d="M 2.046875 -12.59375 L 3.390625 -12.59375 L 3.390625 -1.15625 L 10.4375 -1.15625 L 10.4375 0 L 2.046875 0 Z M 2.046875 -12.59375 "/></g></g><g style="fill:#3d3b3a;fill-opacity:1;"><g transform="translate(152.050745, 217.83331)"><path style="stroke:none" d=""/></g></g><g style="fill:#3d3b3a;fill-opacity:1;"><g transform="translate(162.163659, 217.83331)"><path style="stroke:none" d="M 12.578125 -12.59375 L 12.578125 0 L 11.484375 0 L 3.390625 -10.21875 L 3.390625 0 L 2.046875 0 L 2.046875 -12.59375 L 3.15625 -12.59375 L 11.265625 -2.375 L 11.265625 -12.59375 Z M 12.578125 -12.59375 "/></g></g><g style="fill:#3d3b3a;fill-opacity:1;"><g transform="translate(182.18814, 217.83331)"><path style="stroke:none" d="M 7.5625 0.109375 C 6.3125 0.109375 5.175781 -0.164062 4.15625 -0.71875 C 3.144531 -1.28125 2.351562 -2.046875 1.78125 -3.015625 C 1.21875 -3.992188 0.9375 -5.085938 0.9375 -6.296875 C 0.9375 -7.515625 1.21875 -8.609375 1.78125 -9.578125 C 2.351562 -10.546875 3.144531 -11.304688 4.15625 -11.859375 C 5.175781 -12.421875 6.3125 -12.703125 7.5625 -12.703125 C 8.8125 -12.703125 9.9375 -12.425781 10.9375 -11.875 C 11.9375 -11.320312 12.722656 -10.554688 13.296875 -9.578125 C 13.878906 -8.609375 14.171875 -7.515625 14.171875 -6.296875 C 14.171875 -5.085938 13.878906 -3.992188 13.296875 -3.015625 C 12.722656 -2.035156 11.9375 -1.269531 10.9375 -0.71875 C 9.9375 -0.164062 8.8125 0.109375 7.5625 0.109375 Z M 7.5625 -1.078125 C 8.550781 -1.078125 9.445312 -1.300781 10.25 -1.75 C 11.0625 -2.207031 11.691406 -2.832031 12.140625 -3.625 C 12.597656 -4.425781 12.828125 -5.316406 12.828125 -6.296875 C 12.828125 -7.285156 12.597656 -8.175781 12.140625 -8.96875 C 11.691406 -9.769531 11.0625 -10.394531 10.25 -10.84375 C 9.445312 -11.289062 8.550781 -11.515625 7.5625 -11.515625 C 6.5625 -11.515625 5.65625 -11.289062 4.84375 -10.84375 C 4.039062 -10.394531 3.40625 -9.769531 2.9375 -8.96875 C 2.476562 -8.175781 2.25 -7.285156 2.25 -6.296875 C 2.25 -5.316406 2.476562 -4.425781 2.9375 -3.625 C 3.40625 -2.832031 4.039062 -2.207031 4.84375 -1.75 C 5.65625 -1.300781 6.5625 -1.078125 7.5625 -1.078125 Z M 7.5625 -1.078125 "/></g></g><g style="fill:#3d3b3a;fill-opacity:1;"><g transform="translate(202.680318, 217.83331)"><path style="stroke:none" d="M 15.140625 -12.59375 L 15.140625 0 L 13.859375 0 L 13.859375 -10.078125 L 8.90625 -1.609375 L 8.28125 -1.609375 L 3.328125 -10.03125 L 3.328125 0 L 2.046875 0 L 2.046875 -12.59375 L 3.15625 -12.59375 L 8.625 -3.265625 L 14.046875 -12.59375 Z M 15.140625 -12.59375 "/></g></g><g style="fill:#3d3b3a;fill-opacity:1;"><g transform="translate(225.259144, 217.83331)"><path style="stroke:none" d="M 9.953125 -3.359375 L 2.9375 -3.359375 L 1.421875 0 L 0.03125 0 L 5.796875 -12.59375 L 7.109375 -12.59375 L 12.875 0 L 11.46875 0 Z M 9.46875 -4.453125 L 6.4375 -11.21875 L 3.421875 -4.453125 Z M 9.46875 -4.453125 "/></g></g><g style="fill:#3d3b3a;fill-opacity:1;"><g transform="translate(243.556747, 217.83331)"><path style="stroke:none" d="M 12.578125 -12.59375 L 12.578125 0 L 11.484375 0 L 3.390625 -10.21875 L 3.390625 0 L 2.046875 0 L 2.046875 -12.59375 L 3.15625 -12.59375 L 11.265625 -2.375 L 11.265625 -12.59375 Z M 12.578125 -12.59375 "/></g></g><g style="fill:#3d3b3a;fill-opacity:1;"><g transform="translate(148.556568, 150.253452)"><path style="stroke:none" d="M 56.171875 -0.96875 C 56.390625 -0.96875 56.5 -0.804688 56.5 -0.484375 C 56.5 -0.160156 56.390625 0 56.171875 0 C 55.148438 0 53.570312 -0.0507812 51.4375 -0.15625 C 49.289062 -0.269531 47.734375 -0.328125 46.765625 -0.328125 C 45.585938 -0.328125 44.085938 -0.269531 42.265625 -0.15625 C 40.554688 -0.0507812 39.242188 0 38.328125 0 C 38.117188 0 38.015625 -0.160156 38.015625 -0.484375 C 38.015625 -0.804688 38.117188 -0.96875 38.328125 -0.96875 C 40.316406 -0.96875 41.765625 -1.15625 42.671875 -1.53125 C 43.578125 -1.90625 44.03125 -2.546875 44.03125 -3.453125 C 44.03125 -4.203125 43.6875 -5.351562 43 -6.90625 L 35.84375 -22.09375 L 16.71875 -22.09375 L 11.65625 -10.203125 C 10.90625 -8.378906 10.53125 -6.90625 10.53125 -5.78125 C 10.53125 -4.125 11.1875 -2.90625 12.5 -2.125 C 13.8125 -1.351562 15.78125 -0.96875 18.40625 -0.96875 C 18.664062 -0.96875 18.796875 -0.804688 18.796875 -0.484375 C 18.796875 -0.160156 18.664062 0 18.40625 0 C 17.4375 0 16.039062 -0.0507812 14.21875 -0.15625 C 12.1875 -0.269531 10.421875 -0.328125 8.921875 -0.328125 C 7.523438 -0.328125 5.914062 -0.269531 4.09375 -0.15625 C 2.488281 -0.0507812 1.148438 0 0.078125 0 C -0.191406 0 -0.328125 -0.160156 -0.328125 -0.484375 C -0.328125 -0.804688 -0.191406 -0.96875 0.078125 -0.96875 C 1.578125 -0.96875 2.847656 -1.25 3.890625 -1.8125 C 4.941406 -2.375 5.9375 -3.363281 6.875 -4.78125 C 7.8125 -6.195312 8.84375 -8.242188 9.96875 -10.921875 L 26.921875 -50.953125 C 27.023438 -51.109375 27.210938 -51.1875 27.484375 -51.1875 C 27.753906 -51.1875 27.914062 -51.109375 27.96875 -50.953125 L 46.9375 -11.015625 C 48.75 -7.046875 50.296875 -4.378906 51.578125 -3.015625 C 52.867188 -1.648438 54.398438 -0.96875 56.171875 -0.96875 Z M 17.359375 -23.703125 L 35.109375 -23.703125 L 25.71875 -43.5625 Z M 17.359375 -23.703125 "/></g></g><g style="fill:#3d3b3a;fill-opacity:1;"><g transform="translate(177.410383, 189.494028)"><path style="stroke:none" d="M 56.578125 -50.21875 C 56.734375 -50.21875 56.8125 -50.054688 56.8125 -49.734375 C 56.8125 -49.421875 56.734375 -49.265625 56.578125 -49.265625 C 54.328125 -49.265625 52.691406 -48.644531 51.671875 -47.40625 C 50.648438 -46.175781 50.140625 -44.171875 50.140625 -41.390625 L 50.140625 0.96875 C 50.140625 1.070312 50.003906 1.148438 49.734375 1.203125 C 49.472656 1.253906 49.289062 1.226562 49.1875 1.125 L 12.21875 -43.640625 L 11.484375 -44.4375 L 11.484375 -8.765625 C 11.484375 -5.972656 11.976562 -3.972656 12.96875 -2.765625 C 13.96875 -1.566406 15.566406 -0.96875 17.765625 -0.96875 C 17.921875 -0.96875 18 -0.804688 18 -0.484375 C 18 -0.160156 17.921875 0 17.765625 0 C 16.421875 0 15.398438 -0.0234375 14.703125 -0.078125 L 10.6875 -0.15625 L 6.59375 -0.078125 C 5.84375 -0.0234375 4.742188 0 3.296875 0 C 3.191406 0 3.140625 -0.160156 3.140625 -0.484375 C 3.140625 -0.804688 3.191406 -0.96875 3.296875 -0.96875 C 5.597656 -0.96875 7.226562 -1.566406 8.1875 -2.765625 C 9.15625 -3.972656 9.640625 -5.972656 9.640625 -8.765625 L 9.640625 -46.375 C 7.554688 -48.300781 5.441406 -49.265625 3.296875 -49.265625 C 3.128906 -49.265625 3.046875 -49.421875 3.046875 -49.734375 C 3.046875 -50.054688 3.128906 -50.21875 3.296875 -50.21875 L 6.265625 -50.140625 C 6.910156 -50.085938 7.796875 -50.0625 8.921875 -50.0625 C 10.097656 -50.0625 11.0625 -50.085938 11.8125 -50.140625 C 12.5625 -50.191406 13.148438 -50.21875 13.578125 -50.21875 C 14.003906 -50.21875 14.3125 -50.125 14.5 -49.9375 C 14.6875 -49.75 14.992188 -49.335938 15.421875 -48.703125 C 16.066406 -47.734375 16.710938 -46.847656 17.359375 -46.046875 L 48.296875 -8.03125 L 48.296875 -41.390625 C 48.296875 -44.171875 47.828125 -46.175781 46.890625 -47.40625 C 45.953125 -48.644531 44.382812 -49.265625 42.1875 -49.265625 C 42.082031 -49.265625 42.03125 -49.421875 42.03125 -49.734375 C 42.03125 -50.054688 42.082031 -50.21875 42.1875 -50.21875 L 45.328125 -50.140625 C 46.929688 -50.035156 48.242188 -49.984375 49.265625 -49.984375 C 50.222656 -49.984375 51.5625 -50.035156 53.28125 -50.140625 Z M 56.578125 -50.21875 "/></g></g><g clip-rule="nonzero" clip-path="url(#e5ea0f5cd9)"><g clip-rule="nonzero" clip-path="url(#4e763cb4bc)"><path style=" stroke:none;fill-rule:nonzero;fill:#ffffff;fill-opacity:1;" d="M 194.753906 124.605469 L 206.828125 131.890625 L 179.527344 177.128906 L 167.453125 169.839844 Z M 194.753906 124.605469 "/></g></g><g clip-rule="nonzero" clip-path="url(#43e284b212)"><g clip-rule="nonzero" clip-path="url(#45a8c9f61e)"><path style=" stroke:none;fill-rule:nonzero;fill:#ffffff;fill-opacity:1;" d="M 178.839844 131.804688 L 195.296875 141.738281 L 185.171875 158.511719 L 168.714844 148.582031 Z M 178.839844 131.804688 "/></g></g><g clip-rule="nonzero" clip-path="url(#92cd9228ae)"><g clip-rule="nonzero" clip-path="url(#2d530bcefe)"><path style=" stroke:none;fill-rule:nonzero;fill:#ffffff;fill-opacity:1;" d="M 197.007812 133.59375 L 213.445312 143.515625 L 204.40625 158.492188 L 187.96875 148.570312 Z M 197.007812 133.59375 "/></g></g><path style="fill:none;stroke-width:2;stroke-linecap:butt;stroke-linejoin:miter;stroke:#3d3b3a;stroke-opacity:1;stroke-miterlimit:4;" d="M 0.000822678 1.000125 L 116.884887 0.999427 " transform="matrix(0.431053,-0.613753,0.613753,0.431053,162.46394,183.096742)"/></g></svg>